REM MD5 300d25af9230d59a4953a184b2044259
FILE "Tennis Arena (Europe) (En,Fr,De,Es,It).bin" BINARY
  TRACK 01 MODE2/2352
    INDEX 01 00:00:00
  TRACK 02 AUDIO
    INDEX 00 00:38:31
    INDEX 01 00:40:31
  TRACK 03 AUDIO
    INDEX 00 05:03:66
    INDEX 01 05:05:66
  TRACK 04 AUDIO
    INDEX 00 05:40:35
    INDEX 01 05:42:35
  TRACK 05 AUDIO
    INDEX 00 08:32:47
    INDEX 01 08:34:47
  TRACK 06 AUDIO
    INDEX 00 08:40:67
    INDEX 01 08:42:67
  TRACK 07 AUDIO
    INDEX 00 08:51:28
    INDEX 01 08:53:28
  TRACK 08 AUDIO
    INDEX 00 08:59:23
    INDEX 01 09:01:23
  TRACK 09 AUDIO
    INDEX 00 09:09:23
    INDEX 01 09:11:23
  TRACK 10 AUDIO
    INDEX 00 09:17:64
    INDEX 01 09:19:64
  TRACK 11 AUDIO
    INDEX 00 09:29:26
    INDEX 01 09:31:26
  TRACK 12 AUDIO
    INDEX 00 09:37:38
    INDEX 01 09:39:38
  TRACK 13 AUDIO
    INDEX 00 09:49:15
    INDEX 01 09:51:15
  TRACK 14 AUDIO
    INDEX 00 09:57:04
    INDEX 01 09:59:04
  TRACK 15 AUDIO
    INDEX 00 10:08:41
    INDEX 01 10:10:41
  TRACK 16 AUDIO
    INDEX 00 10:17:27
    INDEX 01 10:19:27
  TRACK 17 AUDIO
    INDEX 00 10:28:27
    INDEX 01 10:30:27
  TRACK 18 AUDIO
    INDEX 00 10:35:56
    INDEX 01 10:37:56
  TRACK 19 AUDIO
    INDEX 00 10:43:52
    INDEX 01 10:45:52
  TRACK 20 AUDIO
    INDEX 00 10:51:60
    INDEX 01 10:53:60
  TRACK 21 AUDIO
    INDEX 00 10:59:73
    INDEX 01 11:01:73
  TRACK 22 AUDIO
    INDEX 00 11:08:71
    INDEX 01 11:10:71
  TRACK 23 AUDIO
    INDEX 00 11:17:07
    INDEX 01 11:19:07
  TRACK 24 AUDIO
    INDEX 00 11:25:48
    INDEX 01 11:27:48
  TRACK 25 AUDIO
    INDEX 00 11:37:53
    INDEX 01 11:39:53
  TRACK 26 AUDIO
    INDEX 00 11:46:58
    INDEX 01 11:48:58
  TRACK 27 AUDIO
    INDEX 00 11:55:00
    INDEX 01 11:57:00
  TRACK 28 AUDIO
    INDEX 00 12:03:24
    INDEX 01 12:05:24
  TRACK 29 AUDIO
    INDEX 00 12:15:56
    INDEX 01 12:17:56
  TRACK 30 AUDIO
    INDEX 00 12:27:17
    INDEX 01 12:29:17
  TRACK 31 AUDIO
    INDEX 00 12:36:22
    INDEX 01 12:38:22
  TRACK 32 AUDIO
    INDEX 00 12:46:57
    INDEX 01 12:48:57
  TRACK 33 AUDIO
    INDEX 00 12:59:14
    INDEX 01 13:01:14
  TRACK 34 AUDIO
    INDEX 00 13:10:43
    INDEX 01 13:12:43
  TRACK 35 AUDIO
    INDEX 00 13:23:00
    INDEX 01 13:25:00
  TRACK 36 AUDIO
    INDEX 00 13:46:03
    INDEX 01 13:48:03
  TRACK 37 AUDIO
    INDEX 00 14:09:69
    INDEX 01 14:11:69
  TRACK 38 AUDIO
    INDEX 00 14:37:14
    INDEX 01 14:39:14
  TRACK 39 AUDIO
    INDEX 00 14:57:65
    INDEX 01 14:59:65
  TRACK 40 AUDIO
    INDEX 00 15:18:31
    INDEX 01 15:20:31
  TRACK 41 AUDIO
    INDEX 00 15:56:56
    INDEX 01 15:58:56
  TRACK 42 AUDIO
    INDEX 00 16:30:06
    INDEX 01 16:32:06
  TRACK 43 AUDIO
    INDEX 00 16:50:22
    INDEX 01 16:52:22
  TRACK 44 AUDIO
    INDEX 00 17:16:34
    INDEX 01 17:18:34
  TRACK 45 AUDIO
    INDEX 00 17:51:14
    INDEX 01 17:53:14
  TRACK 46 AUDIO
    INDEX 00 17:58:31
    INDEX 01 18:00:31
  TRACK 47 AUDIO
    INDEX 00 18:05:19
    INDEX 01 18:07:19
  TRACK 48 AUDIO
    INDEX 00 18:12:68
    INDEX 01 18:14:68
  TRACK 49 AUDIO
    INDEX 00 18:26:25
    INDEX 01 18:28:25
  TRACK 50 AUDIO
    INDEX 00 18:35:09
    INDEX 01 18:37:09
  TRACK 51 AUDIO
    INDEX 00 18:47:38
    INDEX 01 18:49:38
  TRACK 52 AUDIO
    INDEX 00 18:56:17
    INDEX 01 18:58:17
  TRACK 53 AUDIO
    INDEX 00 19:08:36
    INDEX 01 19:10:36
  TRACK 54 AUDIO
    INDEX 00 21:29:52
    INDEX 01 21:31:52
REM LEADOUT 24:41:61
